<?xml version="1.0" standalone="no"?>
<!DOCTYPE svg PUBLIC "-//W3C//DTD SVG 20010904//EN"
 "http://www.w3.org/TR/2001/REC-SVG-20010904/DTD/svg10.dtd">
<svg version="1.0" xmlns="http://www.w3.org/2000/svg"
 width="332.000000pt" height="332.000000pt" viewBox="0 0 332.000000 332.000000"
 preserveAspectRatio="xMidYMid meet">
<metadata>
Created by potrace 1.11, written by Peter Selinger 2001-2013
</metadata>
<g transform="translate(0.000000,332.000000) scale(0.100000,-0.100000)"
fill="#000000" stroke="none">
<path d="M748 2344 c-67 -16 -144 -53 -209 -100 -26 -19 -49 -34 -53 -34 -3 0
-6 16 -6 36 0 28 -8 44 -34 70 -30 30 -40 34 -84 34 -62 0 -106 -32 -122 -88
-14 -50 -14 -1124 0 -1174 15 -53 61 -88 116 -88 57 0 98 21 112 57 8 18 13
165 15 423 3 348 5 401 21 442 55 147 247 241 428 210 39 -7 90 -21 114 -31
98 -44 184 -160 199 -272 l7 -49 124 0 124 0 0 38 c0 22 -9 74 -20 116 -53
208 -200 357 -405 411 -74 19 -248 19 -327 -1z"/>
<path d="M2315 2341 c-77 -22 -159 -63 -212 -108 l-43 -34 0 41 c0 34 -6 48
-34 76 -29 29 -41 34 -80 34 -61 0 -99 -21 -120 -64 -13 -28 -16 -72 -16 -270
l0 -236 124 0 123 0 6 54 c21 201 217 333 443 298 143 -23 248 -100 296 -220
22 -55 23 -71 28 -447 5 -410 6 -417 52 -449 33 -23 119 -21 150 4 49 38 50
50 46 476 -5 443 -4 441 -76 579 -69 131 -205 235 -353 270 -87 20 -257 18
-334 -4z"/>
<path d="M1250 1300 c0 -152 3 -198 16 -230 20 -49 56 -70 120 -70 39 0 51 5
80 34 l34 34 0 211 0 211 -125 0 -125 0 0 -190z"/>
<path d="M1810 1295 c0 -213 7 -247 53 -278 16 -10 46 -17 78 -17 45 0 55 4
85 34 l34 34 0 211 0 211 -125 0 -125 0 0 -195z"/>
</g>
</svg>
